<?xml version="1.0" encoding="utf-8"?>
<!-- Generator: Adobe Illustrator 19.2.0, SVG Export Plug-In . SVG Version: 6.00 Build 0)  -->
<svg version="1.1" id="Слой_1" xmlns="http://www.w3.org/2000/svg" xmlns:xlink="http://www.w3.org/1999/xlink" x="0px" y="0px"
	 viewBox="0 0 164 36" style="enable-background:new 0 0 164 36;" xml:space="preserve">
<style type="text/css">
	.st0{enable-background:new    ;}
</style>
<g class="st0">
	<path d="M14.1,0.9c4.7,0,8.6,1.6,11.7,4.8s4.7,7.2,4.7,12c0,4.8-1.6,8.8-4.7,12c-3.1,3.2-7,4.8-11.7,4.8H0.6V0.9H14.1z M14.1,27.1
		c2.7,0,4.8-0.9,6.5-2.6c1.7-1.7,2.5-4,2.5-6.8c0-2.8-0.8-5.1-2.5-6.8c-1.7-1.7-3.8-2.6-6.5-2.6H8.3v18.8H14.1z"/>
	<path d="M42.6,27.1h13.5v7.4H34.9V0.9h21v7.4H42.6v5.6h12.1v7.3H42.6V27.1z"/>
	<path d="M68.6,34.5l-11-33.6h8.5l7.5,24.7l7.5-24.7h8.5l-11,33.6H68.6z"/>
	<path d="M92.4,0.9h7.7v33.6h-7.7V0.9z"/>
	<path d="M122.1,35.2c-5.1,0-9.3-1.7-12.6-5c-3.3-3.3-5-7.5-5-12.5c0-5,1.7-9.1,5-12.5c3.3-3.3,7.5-5,12.6-5c3,0,5.8,0.7,8.4,2.1
		c2.6,1.4,4.6,3.3,6.1,5.7l-6.7,3.8c-0.7-1.3-1.8-2.3-3.2-3c-1.4-0.7-2.9-1.1-4.6-1.1c-3,0-5.4,0.9-7.2,2.7s-2.7,4.2-2.7,7.2
		c0,3,0.9,5.4,2.7,7.2c1.8,1.8,4.2,2.7,7.2,2.7c1.7,0,3.3-0.4,4.7-1.1c1.4-0.7,2.5-1.7,3.2-3l6.7,3.8c-1.5,2.4-3.5,4.3-6,5.7
		S125.2,35.2,122.1,35.2z"/>
	<path d="M148,27.1h13.5v7.4h-21.3V0.9h21v7.4H148v5.6h12.1v7.3H148V27.1z"/>
</g>
</svg>
