<?xml version="1.0" encoding="utf-8"?>
<!-- Generator: Adobe Illustrator 19.2.0, SVG Export Plug-In . SVG Version: 6.00 Build 0)  -->
<svg version="1.1" id="Слой_1" xmlns="http://www.w3.org/2000/svg" xmlns:xlink="http://www.w3.org/1999/xlink" x="0px" y="0px"
	 viewBox="0 0 163 36" style="enable-background:new 0 0 163 36;" xml:space="preserve">
<style type="text/css">
	.st0{enable-background:new    ;}
	.st1{fill:#FFC600;}
</style>
<g class="st0">
	<path class="st1" d="M14.4,1.1c4.6,0,8.5,1.6,11.6,4.8c3.1,3.2,4.7,7.2,4.7,12c0,4.8-1.6,8.8-4.7,12c-3.1,3.2-7,4.8-11.6,4.8H1V1.1
		H14.4z M14.4,27.3c2.7,0,4.8-0.9,6.5-2.6c1.6-1.7,2.5-4,2.5-6.8c0-2.8-0.8-5.1-2.5-6.8c-1.6-1.7-3.8-2.6-6.5-2.6H8.7v18.8H14.4z"/>
	<path class="st1" d="M42.7,27.3h13.4v7.4H35.1V1.1h20.9v7.4H42.7V14h12v7.3h-12V27.3z"/>
	<path class="st1" d="M68.6,34.7L57.6,1.1H66l7.4,24.7l7.4-24.7h8.4L78.4,34.7H68.6z"/>
	<path class="st1" d="M92.2,1.1h7.7v33.6h-7.7V1.1z"/>
	<path class="st1" d="M121.6,35.4c-5,0-9.2-1.7-12.5-5c-3.3-3.3-5-7.5-5-12.5c0-5,1.7-9.1,5-12.5c3.3-3.3,7.5-5,12.5-5
		c3,0,5.8,0.7,8.4,2.1c2.6,1.4,4.6,3.3,6,5.7l-6.6,3.8c-0.7-1.3-1.8-2.3-3.2-3c-1.4-0.7-2.9-1.1-4.6-1.1c-3,0-5.4,0.9-7.1,2.7
		s-2.7,4.2-2.7,7.2c0,3,0.9,5.4,2.7,7.2s4.2,2.7,7.1,2.7c1.7,0,3.2-0.4,4.6-1.1c1.4-0.7,2.4-1.7,3.1-3l6.6,3.8
		c-1.4,2.4-3.4,4.3-6,5.7C127.5,34.7,124.7,35.4,121.6,35.4z"/>
	<path class="st1" d="M147.3,27.3h13.4v7.4h-21.1V1.1h20.9v7.4h-13.2V14h12v7.3h-12V27.3z"/>
</g>
</svg>
